<?xml version="1.0" encoding="UTF-8"?>
<svg xmlns="http://www.w3.org/2000/svg" xmlns:xlink="http://www.w3.org/1999/xlink" width="216pt" height="216pt" viewBox="0 0 216 216" version="1.1">
<defs>
<clipPath id="clip1">
  <path d="M 0.71875 0.71875 L 216.277344 0.71875 L 216.277344 216.277344 L 0.71875 216.277344 Z M 0.71875 0.71875 "/>
</clipPath>
</defs>
<g id="surface86">
<rect x="0" y="0" width="216" height="216" style="fill:rgb(100%,100%,100%);fill-opacity:1;stroke:none;"/>
<g clip-path="url(#clip1)" clip-rule="nonzero">
<path style="fill-rule:nonzero;fill:rgb(100%,100%,100%);fill-opacity:1;stroke-width:0.75;stroke-linecap:round;stroke-linejoin:round;stroke:rgb(100%,100%,100%);stroke-opacity:1;stroke-miterlimit:10;" d="M 0.71875 215.28125 L 215.277344 215.28125 L 215.277344 0.722656 L 0.71875 0.722656 Z M 0.71875 215.28125 "/>
<path style="fill-rule:nonzero;fill:rgb(80.392157%,78.431373%,69.411765%);fill-opacity:1;stroke-width:0.75;stroke-linecap:round;stroke-linejoin:round;stroke:rgb(54.509804%,53.333333%,47.058824%);stroke-opacity:1;stroke-miterlimit:10;" d="M 144.242188 196.929688 L 144.570313 195.628906 L 143.914063 195.464844 L 144.242188 194.164063 L 142.269531 193.671875 L 143.09375 190.414063 L 142.4375 190.253906 L 142.601563 189.601563 L 141.945313 189.4375 L 142.109375 188.785156 L 141.453125 188.625 L 141.617188 187.972656 L 140.960938 187.808594 L 141.125 187.15625 L 140.46875 186.992188 L 140.632813 186.34375 L 139.976563 186.179688 L 140.140625 185.527344 L 139.484375 185.363281 L 139.648438 184.714844 L 138.992188 184.550781 L 139.320313 183.246094 L 138.664063 183.085938 L 138.828125 182.433594 L 136.855469 181.941406 L 137.019531 181.292969 L 135.707031 180.964844 L 135.542969 181.617188 L 134.882813 181.453125 L 134.226563 181.289063 L 133.402344 184.546875 L 132.746094 184.382813 L 132.582031 185.035156 L 129.296875 184.21875 L 129.132813 184.871094 L 126.503906 184.21875 L 126.339844 184.867188 L 125.679688 184.707031 L 125.84375 184.054688 L 125.1875 183.890625 L 125.351563 183.238281 L 124.695313 183.078125 L 125.023438 181.773438 L 124.367188 181.609375 L 124.53125 180.960938 L 123.875 180.796875 L 123.710938 181.449219 L 123.054688 181.285156 L 122.890625 181.9375 L 122.230469 181.773438 L 122.394531 181.121094 L 121.082031 180.792969 L 120.917969 181.445313 L 118.945313 180.957031 L 118.78125 181.609375 L 118.125 181.445313 L 117.960938 182.097656 L 115.332031 181.445313 L 115.496094 180.792969 L 114.839844 180.628906 L 115.167969 179.324219 L 114.511719 179.164063 L 114.34375 179.8125 L 113.03125 179.488281 L 113.195313 178.835938 L 112.539063 178.671875 L 112.703125 178.023438 L 112.046875 177.859375 L 112.703125 175.253906 L 112.046875 175.089844 L 112.375 173.789063 L 111.71875 173.625 L 112.214844 171.667969 L 111.554688 171.507813 L 112.050781 169.550781 L 111.390625 169.390625 L 111.558594 168.738281 L 110.898438 168.574219 L 111.0625 167.921875 L 110.40625 167.761719 L 110.242188 168.410156 L 109.585938 168.25 L 109.421875 168.898438 L 108.761719 168.738281 L 108.433594 170.039063 L 107.777344 169.875 L 107.28125 171.832031 L 106.625 171.667969 L 106.296875 172.96875 L 105.640625 172.808594 L 105.476563 173.457031 L 104.816406 173.296875 L 104.488281 174.597656 L 103.832031 174.433594 L 103.667969 175.085938 L 103.007813 174.921875 L 102.84375 175.574219 L 102.1875 175.410156 L 102.023438 176.0625 L 101.367188 175.898438 L 101.203125 176.550781 L 100.542969 176.386719 L 100.214844 177.691406 L 99.558594 177.527344 L 99.0625 179.484375 L 98.40625 179.320313 L 97.914063 181.273438 L 97.257813 181.109375 L 97.421875 180.460938 L 96.761719 180.296875 L 96.929688 179.644531 L 96.269531 179.480469 L 96.433594 178.832031 L 95.777344 178.667969 L 95.941406 178.015625 L 95.285156 177.851563 L 95.449219 177.203125 L 94.792969 177.039063 L 95.285156 175.082031 L 93.972656 174.757813 L 94.136719 174.105469 L 92.820313 173.78125 L 92.988281 173.128906 L 91.671875 172.800781 L 91.835938 172.152344 L 91.179688 171.988281 L 91.34375 171.335938 L 90.6875 171.171875 L 91.015625 169.871094 L 90.359375 169.707031 L 90.195313 170.359375 L 88.878906 170.03125 L 88.222656 169.871094 L 88.386719 169.21875 L 87.070313 168.890625 L 87.238281 168.242188 L 85.921875 167.914063 L 86.085938 167.261719 L 84.773438 166.9375 L 84.605469 167.589844 L 83.949219 167.425781 L 84.113281 166.773438 L 83.457031 166.609375 L 83.621094 165.960938 L 82.308594 165.632813 L 82.144531 166.285156 L 81.484375 166.121094 L 81.15625 167.425781 L 81.8125 167.585938 L 81.320313 169.542969 L 80.664063 169.378906 L 80.5 170.03125 L 79.839844 169.867188 L 79.347656 171.820313 L 78.691406 171.660156 L 78.363281 172.960938 L 77.703125 172.796875 L 77.375 174.101563 L 76.71875 173.9375 L 76.554688 174.589844 L 75.238281 174.265625 L 75.402344 173.613281 L 74.746094 173.449219 L 74.910156 172.796875 L 70.96875 171.820313 L 70.636719 173.121094 L 69.980469 172.960938 L 69.816406 173.613281 L 68.503906 173.285156 L 68.667969 172.632813 L 67.351563 172.308594 L 67.515625 171.65625 L 66.859375 171.492188 L 67.023438 170.84375 L 66.367188 170.679688 L 66.203125 171.332031 L 64.230469 170.839844 L 64.394531 170.191406 L 63.738281 170.027344 L 64.394531 167.421875 L 65.050781 167.585938 L 65.710938 164.976563 L 65.050781 164.816406 L 65.21875 164.164063 L 64.558594 164 L 64.890625 162.699219 L 64.230469 162.535156 L 64.558594 161.230469 L 63.902344 161.070313 L 64.066406 160.417969 L 63.410156 160.253906 L 63.574219 159.601563 L 60.945313 158.953125 L 61.109375 158.300781 L 60.453125 158.136719 L 60.617188 157.484375 L 59.300781 157.160156 L 59.464844 156.507813 L 60.125 156.671875 L 61.273438 152.109375 L 60.617188 151.949219 L 60.78125 151.296875 L 60.125 151.132813 L 60.617188 149.179688 L 59.304688 148.851563 L 59.46875 148.203125 L 58.152344 147.875 L 57.988281 148.527344 L 54.703125 147.710938 L 54.539063 148.363281 L 53.878906 148.199219 L 53.550781 149.503906 L 52.894531 149.339844 L 52.730469 149.992188 L 50.101563 149.339844 L 49.933594 149.992188 L 49.277344 149.828125 L 49.113281 150.480469 L 48.457031 150.316406 L 48.128906 151.621094 L 47.46875 151.457031 L 47.140625 152.761719 L 47.796875 152.921875 L 47.632813 153.574219 L 46.976563 153.414063 L 46.8125 154.0625 L 44.183594 153.414063 L 44.347656 152.761719 L 43.691406 152.597656 L 44.183594 150.644531 L 43.527344 150.480469 L 43.691406 149.828125 L 43.03125 149.664063 L 43.195313 149.015625 L 41.226563 148.527344 L 41.0625 149.175781 L 39.746094 148.851563 L 39.582031 149.503906 L 38.925781 149.339844 L 38.761719 149.992188 L 36.128906 149.339844 L 35.964844 149.992188 L 35.308594 149.828125 L 35.144531 150.480469 L 33.828125 150.15625 L 33.992188 149.503906 L 32.679688 149.175781 L 32.515625 149.828125 L 31.199219 149.503906 L 29.886719 149.175781 L 30.214844 147.875 L 29.554688 147.710938 L 30.050781 145.757813 L 30.707031 145.917969 L 30.871094 145.269531 L 32.1875 145.59375 L 32.351563 144.941406 L 33.007813 145.105469 L 33.5 143.152344 L 34.15625 143.3125 L 35.144531 139.40625 L 35.800781 139.566406 L 35.964844 138.917969 L 36.625 139.078125 L 36.953125 137.777344 L 37.609375 137.9375 L 38.265625 135.332031 L 38.925781 135.496094 L 39.089844 134.84375 L 39.746094 135.007813 L 39.910156 134.355469 L 40.566406 134.519531 L 40.730469 133.867188 L 41.390625 134.03125 L 41.71875 132.726563 L 41.0625 132.5625 L 41.71875 129.957031 L 41.0625 129.796875 L 42.046875 125.886719 L 41.390625 125.722656 L 41.554688 125.070313 L 42.210938 125.234375 L 43.035156 121.976563 L 42.375 121.8125 L 43.035156 119.207031 L 42.375 119.046875 L 42.707031 117.742188 L 41.390625 117.417969 L 41.554688 116.765625 L 40.898438 116.601563 L 41.0625 115.949219 L 39.746094 115.625 L 39.910156 114.972656 L 39.253906 114.808594 L 39.417969 114.160156 L 38.761719 113.996094 L 39.253906 112.042969 L 38.597656 111.878906 L 38.925781 110.574219 L 38.265625 110.414063 L 38.925781 107.808594 L 39.582031 107.96875 L 40.402344 104.710938 L 39.746094 104.550781 L 40.074219 103.246094 L 39.417969 103.082031 L 39.910156 101.128906 L 40.570313 101.292969 L 40.898438 99.988281 L 41.554688 100.152344 L 41.71875 99.5 L 41.0625 99.335938 L 41.554688 97.382813 L 40.898438 97.21875 L 41.0625 96.566406 L 40.40625 96.40625 L 40.570313 95.753906 L 39.910156 95.589844 L 40.074219 94.9375 L 39.417969 94.777344 L 39.582031 94.125 L 38.925781 93.960938 L 39.089844 93.308594 L 38.433594 93.148438 L 38.761719 91.84375 L 38.101563 91.683594 L 38.265625 91.03125 L 36.953125 90.703125 L 37.117188 90.054688 L 36.457031 89.890625 L 37.28125 86.632813 L 39.253906 87.121094 L 39.417969 86.46875 L 40.074219 86.632813 L 40.40625 85.328125 L 39.746094 85.167969 L 40.074219 83.863281 L 39.417969 83.699219 L 39.910156 81.746094 L 39.253906 81.582031 L 39.417969 80.929688 L 38.761719 80.769531 L 38.925781 80.117188 L 36.292969 79.464844 L 36.457031 78.8125 L 32.511719 77.835938 L 32.675781 77.183594 L 32.019531 77.023438 L 32.183594 76.371094 L 31.527344 76.207031 L 31.855469 74.90625 L 31.199219 74.742188 L 31.363281 74.089844 L 28.730469 73.4375 L 28.566406 74.089844 L 27.25 73.765625 L 27.085938 74.417969 L 25.113281 73.929688 L 25.277344 73.277344 L 24.621094 73.113281 L 24.785156 72.460938 L 22.8125 71.972656 L 22.648438 72.625 L 21.988281 72.460938 L 21.824219 73.113281 L 21.167969 72.949219 L 21.003906 73.601563 L 20.347656 73.441406 L 20.511719 72.789063 L 19.851563 72.625 L 20.179688 71.324219 L 20.839844 71.484375 L 21.167969 70.183594 L 21.824219 70.34375 L 22.976563 65.785156 L 23.632813 65.945313 L 23.796875 65.296875 L 24.457031 65.457031 L 24.785156 64.15625 L 25.441406 64.316406 L 25.605469 63.667969 L 26.265625 63.828125 L 26.921875 61.222656 L 26.265625 61.058594 L 26.59375 59.757813 L 25.933594 59.59375 L 26.097656 58.941406 L 25.441406 58.78125 L 25.605469 58.128906 L 24.949219 57.964844 L 25.113281 57.3125 L 24.457031 57.152344 L 24.785156 55.847656 L 24.125 55.683594 L 24.289063 55.035156 L 23.632813 54.871094 L 23.796875 54.21875 L 21.824219 53.730469 L 21.988281 53.078125 L 20.671875 52.753906 L 20.507813 53.40625 L 19.851563 53.242188 L 19.6875 53.894531 L 13.765625 52.429688 L 13.929688 51.777344 L 13.273438 51.613281 L 13.4375 50.960938 L 12.78125 50.800781 L 12.945313 50.148438 L 12.285156 49.984375 L 12.449219 49.335938 L 10.476563 48.847656 L 10.640625 48.195313 L 9.984375 48.03125 L 10.148438 47.378906 L 9.488281 47.21875 L 9.820313 45.914063 L 9.160156 45.75 L 9.488281 44.449219 L 8.832031 44.285156 L 9.488281 41.679688 L 8.832031 41.515625 L 9.324219 39.5625 L 8.667969 39.398438 L 8.996094 38.097656 L 9.160156 37.445313 L 9.816406 37.605469 L 9.980469 36.957031 L 10.640625 37.117188 L 10.804688 36.464844 L 11.460938 36.628906 L 11.789063 35.328125 L 12.449219 35.488281 L 12.777344 34.1875 L 13.433594 34.347656 L 13.765625 33.046875 L 14.421875 33.207031 L 14.914063 31.253906 L 14.257813 31.089844 L 14.585938 29.789063 L 13.929688 29.625 L 14.09375 28.972656 L 13.433594 28.8125 L 13.761719 27.507813 L 13.105469 27.34375 L 13.269531 26.691406 L 11.953125 26.367188 L 12.28125 25.0625 L 11.625 24.902344 L 11.953125 23.597656 L 12.609375 23.761719 L 12.777344 23.109375 L 13.433594 23.273438 L 13.925781 21.316406 L 13.269531 21.15625 L 13.433594 20.503906 L 12.117188 20.179688 L 12.28125 19.527344 L 11.625 19.363281 L 11.953125 18.058594 L 11.292969 17.898438 L 11.460938 17.246094 L 10.800781 17.082031 L 11.128906 15.78125 L 11.789063 15.941406 L 11.953125 15.292969 L 12.609375 15.453125 L 12.773438 14.800781 L 13.433594 14.964844 L 13.597656 14.3125 L 14.253906 14.476563 L 14.417969 13.824219 L 15.078125 13.988281 L 14.914063 14.640625 L 15.570313 14.800781 L 15.078125 16.757813 L 14.417969 16.59375 L 14.089844 17.898438 L 14.75 18.058594 L 14.585938 18.710938 L 15.898438 19.039063 L 15.734375 19.6875 L 18.367188 20.339844 L 18.203125 20.992188 L 19.519531 21.316406 L 19.683594 20.664063 L 22.316406 21.316406 L 22.480469 20.664063 L 25.109375 21.316406 L 25.273438 20.664063 L 25.933594 20.828125 L 26.589844 20.992188 L 26.425781 21.640625 L 28.398438 22.132813 L 28.234375 22.78125 L 29.550781 23.109375 L 29.386719 23.761719 L 30.042969 23.921875 L 29.714844 25.226563 L 30.375 25.386719 L 30.210938 26.039063 L 31.523438 26.367188 L 31.359375 27.015625 L 32.675781 27.34375 L 32.511719 27.996094 L 33.828125 28.320313 L 33.664063 28.972656 L 34.320313 29.136719 L 33.828125 31.089844 L 34.484375 31.253906 L 34.320313 31.902344 L 34.980469 32.066406 L 34.8125 32.71875 L 35.472656 32.882813 L 35.308594 33.53125 L 35.964844 33.695313 L 35.800781 34.347656 L 36.457031 34.511719 L 36.292969 35.160156 L 38.269531 35.648438 L 38.433594 35 L 41.722656 35.8125 L 41.558594 36.464844 L 46.160156 37.605469 L 45.996094 38.257813 L 46.65625 38.417969 L 46.488281 39.070313 L 49.121094 39.722656 L 48.957031 40.375 L 49.613281 40.539063 L 49.449219 41.1875 L 50.109375 41.351563 L 49.945313 42.003906 L 50.601563 42.167969 L 50.4375 42.816406 L 51.09375 42.980469 L 50.929688 43.632813 L 51.585938 43.796875 L 51.421875 44.445313 L 52.738281 44.773438 L 51.09375 51.289063 L 51.75 51.449219 L 51.585938 52.101563 L 56.847656 53.40625 L 57.011719 52.753906 L 57.671875 52.917969 L 58 51.613281 L 58.65625 51.777344 L 59.152344 49.824219 L 59.808594 49.984375 L 59.972656 49.335938 L 61.945313 49.824219 L 62.113281 49.171875 L 66.058594 50.148438 L 65.894531 50.800781 L 66.550781 50.964844 L 66.386719 51.617188 L 67.042969 51.777344 L 66.714844 53.082031 L 67.371094 53.246094 L 67.207031 53.894531 L 67.867188 54.058594 L 68.195313 52.753906 L 68.851563 52.917969 L 69.015625 52.265625 L 69.675781 52.429688 L 69.839844 51.777344 L 71.15625 52.105469 L 70.824219 53.40625 L 74.773438 54.386719 L 74.9375 53.734375 L 75.59375 53.898438 L 75.757813 53.246094 L 75.101563 53.082031 L 75.265625 52.429688 L 76.582031 52.757813 L 76.910156 51.453125 L 77.074219 50.804688 L 82.335938 52.105469 L 82.171875 52.757813 L 82.832031 52.921875 L 82.664063 53.574219 L 83.324219 53.738281 L 83.160156 54.386719 L 83.816406 54.550781 L 83.324219 56.503906 L 83.980469 56.667969 L 83.652344 57.972656 L 84.308594 58.132813 L 83.320313 62.042969 L 83.980469 62.207031 L 83.8125 62.859375 L 84.472656 63.019531 L 84.308594 63.671875 L 84.964844 63.835938 L 84.800781 64.488281 L 85.457031 64.648438 L 85.292969 65.300781 L 86.609375 65.628906 L 86.28125 66.929688 L 86.9375 67.09375 L 86.773438 67.746094 L 87.429688 67.910156 L 87.265625 68.558594 L 87.921875 68.722656 L 87.757813 69.375 L 88.417969 69.539063 L 88.25 70.1875 L 94.828125 71.820313 L 94.664063 72.472656 L 96.636719 72.960938 L 96.472656 73.613281 L 97.128906 73.773438 L 97.457031 72.472656 L 98.117188 72.636719 L 98.28125 71.984375 L 98.9375 72.148438 L 99.101563 71.496094 L 101.074219 71.984375 L 101.242188 71.332031 L 103.214844 71.824219 L 103.871094 71.984375 L 103.542969 73.289063 L 104.199219 73.453125 L 103.871094 74.753906 L 104.527344 74.917969 L 104.035156 76.871094 L 104.691406 77.035156 L 104.363281 78.339844 L 105.019531 78.5 L 104.855469 79.152344 L 105.511719 79.316406 L 105.347656 79.96875 L 109.292969 80.945313 L 109.457031 80.296875 L 110.113281 80.457031 L 110.28125 79.808594 L 112.910156 80.460938 L 113.074219 79.808594 L 116.363281 80.625 L 116.527344 79.972656 L 117.183594 80.136719 L 117.351563 79.484375 L 119.980469 80.136719 L 120.144531 79.484375 L 122.117188 79.976563 L 122.777344 77.367188 L 122.941406 76.71875 L 124.257813 77.042969 L 124.089844 77.695313 L 125.40625 78.023438 L 125.242188 78.671875 L 127.214844 79.164063 L 127.050781 79.8125 L 128.363281 80.140625 L 128.199219 80.792969 L 128.859375 80.957031 L 128.691406 81.605469 L 129.351563 81.769531 L 129.1875 82.421875 L 129.84375 82.585938 L 129.679688 83.234375 L 130.335938 83.398438 L 129.84375 85.355469 L 128.195313 91.867188 L 128.851563 92.03125 L 128.523438 93.335938 L 129.179688 93.496094 L 128.851563 94.800781 L 129.507813 94.964844 L 129.34375 95.613281 L 134.601563 96.921875 L 134.4375 97.570313 L 135.097656 97.734375 L 134.765625 99.039063 L 135.425781 99.203125 L 136.738281 99.527344 L 136.574219 100.179688 L 137.230469 100.34375 L 136.738281 102.296875 L 137.394531 102.460938 L 137.230469 103.113281 L 139.203125 103.601563 L 139.039063 104.253906 L 139.695313 104.417969 L 139.367188 105.71875 L 140.023438 105.882813 L 139.859375 106.535156 L 140.515625 106.695313 L 140.351563 107.347656 L 141.007813 107.511719 L 140.84375 108.164063 L 141.5 108.328125 L 141.171875 109.628906 L 141.828125 109.792969 L 141.335938 111.746094 L 141.992188 111.910156 L 141.332031 114.515625 L 141.988281 114.679688 L 141.167969 117.9375 L 144.453125 118.753906 L 144.617188 118.101563 L 145.277344 118.265625 L 145.441406 117.613281 L 146.097656 117.777344 L 146.261719 117.125 L 146.921875 117.289063 L 147.085938 116.636719 L 147.742188 116.800781 L 147.90625 116.148438 L 161.710938 119.578125 L 161.878906 118.925781 L 162.535156 119.089844 L 162.699219 118.4375 L 163.355469 118.601563 L 163.523438 117.949219 L 164.179688 118.113281 L 164.34375 117.460938 L 166.316406 117.953125 L 166.972656 118.117188 L 166.644531 119.417969 L 165.984375 119.253906 L 165.160156 122.511719 L 165.820313 122.675781 L 165.160156 125.28125 L 164.503906 125.117188 L 164.171875 126.421875 L 163.515625 126.257813 L 163.1875 127.558594 L 162.527344 127.398438 L 162.363281 128.046875 L 161.050781 127.722656 L 160.882813 128.371094 L 160.226563 128.210938 L 160.0625 128.859375 L 159.40625 128.699219 L 159.238281 129.347656 L 159.898438 129.511719 L 159.238281 132.117188 L 157.921875 131.792969 L 157.757813 132.441406 L 156.445313 132.117188 L 156.277344 132.765625 L 155.621094 132.605469 L 155.292969 133.90625 L 155.949219 134.070313 L 155.453125 136.023438 L 156.113281 136.1875 L 155.945313 136.839844 L 156.605469 137.003906 L 156.441406 137.652344 L 157.097656 137.816406 L 156.933594 138.46875 L 157.589844 138.632813 L 157.261719 139.933594 L 156.601563 139.769531 L 156.4375 140.421875 L 161.695313 141.730469 L 161.53125 142.378906 L 163.503906 142.871094 L 163.171875 144.171875 L 165.804688 144.828125 L 165.636719 145.476563 L 168.265625 146.132813 L 168.101563 146.78125 L 168.757813 146.945313 L 168.429688 148.25 L 169.085938 148.414063 L 168.921875 149.0625 L 168.265625 148.898438 L 167.769531 150.855469 L 168.429688 151.019531 L 168.261719 151.667969 L 168.921875 151.832031 L 168.753906 152.484375 L 171.382813 153.136719 L 171.550781 152.484375 L 172.863281 152.8125 L 170.71875 161.28125 L 171.378906 161.445313 L 170.882813 163.398438 L 171.539063 163.5625 L 171.375 164.210938 L 172.03125 164.375 L 171.703125 165.679688 L 172.359375 165.84375 L 172.195313 166.492188 L 172.851563 166.65625 L 172.195313 169.261719 L 172.851563 169.425781 L 172.6875 170.078125 L 173.34375 170.242188 L 173.179688 170.890625 L 173.835938 171.054688 L 173.671875 171.707031 L 174.328125 171.871094 L 173.339844 175.777344 L 175.308594 176.269531 L 175.144531 176.917969 L 179.089844 177.898438 L 178.921875 178.550781 L 180.894531 179.042969 L 180.730469 179.691406 L 181.386719 179.855469 L 181.222656 180.507813 L 181.878906 180.671875 L 181.714844 181.324219 L 184.34375 181.976563 L 185 182.140625 L 184.835938 182.789063 L 185.492188 182.953125 L 185.164063 184.257813 L 187.132813 184.746094 L 186.96875 185.398438 L 188.941406 185.890625 L 189.105469 185.238281 L 190.417969 185.566406 L 190.253906 186.214844 L 190.910156 186.378906 L 190.746094 187.03125 L 193.375 187.683594 L 193.210938 188.335938 L 193.867188 188.5 L 193.703125 189.152344 L 198.300781 190.292969 L 198.136719 190.945313 L 202.078125 191.925781 L 202.246094 191.277344 L 203.558594 191.601563 L 203.394531 192.253906 L 204.707031 192.582031 L 204.542969 193.230469 L 205.199219 193.394531 L 205.035156 194.046875 L 206.347656 194.375 L 206.019531 195.675781 L 207.332031 196.003906 L 207.167969 196.65625 L 206.511719 196.492188 L 206.179688 197.792969 L 205.523438 197.628906 L 205.359375 198.28125 L 204.703125 198.117188 L 204.539063 198.769531 L 203.878906 198.605469 L 203.714844 199.257813 L 203.058594 199.09375 L 202.730469 200.398438 L 202.070313 200.234375 L 201.414063 200.070313 L 201.25 200.722656 L 194.679688 199.085938 L 194.84375 198.433594 L 194.1875 198.273438 L 194.023438 198.921875 L 194.679688 199.085938 L 194.183594 201.039063 L 193.527344 200.878906 L 193.363281 201.527344 L 188.105469 200.222656 L 187.613281 202.175781 L 186.953125 202.011719 L 187.121094 201.359375 L 184.492188 200.707031 L 184.328125 201.359375 L 181.699219 200.703125 L 181.863281 200.054688 L 179.890625 199.5625 L 180.058594 198.910156 L 179.398438 198.746094 L 179.566406 198.097656 L 177.59375 197.605469 L 177.429688 198.257813 L 175.457031 197.765625 L 175.621094 197.117188 L 174.964844 196.953125 L 175.128906 196.300781 L 171.84375 195.484375 L 172.007813 194.832031 L 170.695313 194.507813 L 170.53125 195.15625 L 169.214844 194.832031 L 169.050781 195.484375 L 166.421875 194.828125 L 166.257813 195.480469 L 157.714844 193.355469 L 157.878906 192.707031 L 154.59375 191.890625 L 154.265625 193.191406 L 153.609375 193.027344 L 153.445313 193.679688 L 150.816406 193.027344 L 150.652344 193.679688 L 149.992188 193.515625 L 149.664063 194.816406 L 149.007813 194.652344 L 148.511719 196.609375 L 147.855469 196.445313 L 147.691406 197.097656 L 145.0625 196.445313 L 144.898438 197.09375 Z M 144.242188 196.929688 "/>
<path style="fill:none;stroke-width:0.75;stroke-linecap:round;stroke-linejoin:round;stroke:rgb(0%,0%,100%);stroke-opacity:1;stroke-miterlimit:10;" d="M 144.03125 166.054688 L 146.371094 167.996094 L 151.042969 168.742188 L 155.03125 170.285156 L 158.964844 172.742188 L 160.046875 173.945313 L 161.132813 174.6875 L 162.785156 175.203125 L 164.777344 176.175781 L 165.976563 177.089844 L 167.800781 179.4375 L 168.65625 180.980469 L 168.828125 182.070313 L 167.742188 184.871094 L 167.914063 185.902344 L 170.765625 189.105469 L 172.703125 190.25 L 174.640625 191.222656 L 176.75 191.507813 L 183.8125 191.621094 L 184.5 191.964844 L 184.78125 192.765625 L 186.664063 195.113281 L 187.347656 195.742188 L 188.203125 196.085938 L 188.542969 195.972656 L 188.886719 195.34375 L 188.773438 193.910156 L 188.429688 193.398438 L 188.488281 192.652344 L 188.886719 192.308594 L 190.027344 192.25 L 192.816406 192.539063 L 193.957031 192.9375 L 199.199219 196.257813 L 202.730469 196.085938 L 203.644531 195.683594 L 206.265625 195.742188 L 207.347656 196.027344 "/>
<path style="fill:none;stroke-width:0.75;stroke-linecap:round;stroke-linejoin:round;stroke:rgb(0%,0%,100%);stroke-opacity:1;stroke-miterlimit:10;" d="M 123.960938 146.492188 L 124.875 146.492188 L 125.730469 146.890625 L 126.355469 147.578125 L 130.175781 149.578125 L 131.886719 150.09375 L 134.792969 151.234375 L 135.707031 152.09375 L 136.046875 152.152344 L 138.101563 154.839844 L 139.355469 157.355469 L 140.382813 159.128906 L 140.667969 160.5625 L 141.296875 163.421875 L 142.152344 164.679688 L 144.03125 166.054688 "/>
<path style="fill:none;stroke-width:0.75;stroke-linecap:round;stroke-linejoin:round;stroke:rgb(0%,0%,100%);stroke-opacity:1;stroke-miterlimit:10;" d="M 100.757813 138.777344 L 101.957031 139.234375 L 102.753906 139.234375 L 107.253906 137.402344 L 108.738281 137.113281 L 109.535156 137.398438 L 114.324219 137.054688 L 115.007813 137.453125 L 115.238281 138.199219 L 115.523438 138.425781 L 115.921875 140.085938 L 117.121094 141.859375 L 117.121094 142.085938 L 118.148438 144.148438 L 119.515625 145.460938 L 122.765625 146.375 L 123.960938 146.492188 "/>
<path style="fill:none;stroke-width:0.75;stroke-linecap:round;stroke-linejoin:round;stroke:rgb(0%,0%,100%);stroke-opacity:1;stroke-miterlimit:10;" d="M 98.128906 127.5625 L 98.53125 130.652344 "/>
<path style="fill:none;stroke-width:0.75;stroke-linecap:round;stroke-linejoin:round;stroke:rgb(0%,0%,100%);stroke-opacity:1;stroke-miterlimit:10;" d="M 100.644531 137.175781 L 100.644531 137.691406 L 100.757813 137.863281 L 100.757813 138.777344 "/>
<path style="fill:none;stroke-width:0.75;stroke-linecap:round;stroke-linejoin:round;stroke:rgb(0%,0%,100%);stroke-opacity:1;stroke-miterlimit:10;" d="M 98.53125 130.652344 L 98.75 130.964844 L 100.144531 133.058594 L 100.753906 136.917969 L 100.644531 137.175781 "/>
<path style="fill:none;stroke-width:0.75;stroke-linecap:round;stroke-linejoin:round;stroke:rgb(0%,0%,100%);stroke-opacity:1;stroke-miterlimit:10;" d="M 86.601563 109.546875 L 86.820313 109.71875 L 90.71875 111.011719 L 92.328125 113.671875 L 93.324219 118.765625 L 98.074219 127.441406 L 98.128906 127.5625 "/>
<path style="fill:none;stroke-width:0.75;stroke-linecap:round;stroke-linejoin:round;stroke:rgb(0%,0%,100%);stroke-opacity:1;stroke-miterlimit:10;" d="M 64.859375 86.042969 L 66.34375 86.214844 L 67.085938 86.902344 L 67.65625 87.929688 L 67.65625 88.558594 L 68.398438 90.21875 L 68.800781 92.105469 L 70.511719 96.453125 L 70.96875 97.199219 L 71.65625 97.710938 L 72.226563 98.96875 L 72.339844 99.601563 L 72.855469 100.113281 L 73.367188 101.601563 L 75.023438 103.945313 L 76.964844 105.664063 L 80.554688 107.261719 L 84.605469 108.632813 L 86.601563 109.546875 "/>
<path style="fill:none;stroke-width:0.75;stroke-linecap:round;stroke-linejoin:round;stroke:rgb(0%,0%,100%);stroke-opacity:1;stroke-miterlimit:10;" d="M 18.101563 36.074219 L 18.960938 37.164063 L 20.558594 38.246094 L 28.261719 40.699219 L 30.316406 41.554688 L 31.398438 42.355469 L 34.484375 46.875 L 36.027344 48.472656 L 38.480469 49.558594 L 40.589844 50.757813 L 41.277344 51.332031 L 41.222656 53.90625 L 41.507813 55.222656 L 43.964844 60.425781 L 45.222656 61.914063 L 47.046875 63.113281 L 47.960938 64.085938 L 52.070313 69.574219 L 54.699219 73.976563 L 57.609375 77.636719 L 59.324219 79.296875 L 60.464844 79.753906 L 61.945313 80.039063 L 62.574219 80.378906 L 63.089844 81.007813 L 63.71875 84.441406 L 64.289063 85.128906 L 64.859375 86.042969 "/>
<path style="fill:none;stroke-width:0.75;stroke-linecap:round;stroke-linejoin:round;stroke:rgb(0%,0%,100%);stroke-opacity:1;stroke-miterlimit:10;" d="M 154.792969 123.589844 L 154.167969 126.566406 L 150.347656 134.75 L 149.722656 136.179688 L 149.097656 139.15625 L 148.242188 144.535156 L 148.015625 147.398438 L 147.617188 148.941406 L 145.167969 155.179688 L 144.429688 158.785156 L 144.03125 166.054688 "/>
<path style="fill:none;stroke-width:0.75;stroke-linecap:round;stroke-linejoin:round;stroke:rgb(0%,0%,100%);stroke-opacity:1;stroke-miterlimit:10;" d="M 112.988281 86.925781 L 113.445313 88.070313 L 113.84375 92.648438 L 114.871094 94.765625 L 116.414063 96.882813 L 116.527344 97.339844 L 117.097656 100.429688 L 117.101563 102.375 L 116.871094 103.921875 L 116.929688 106.496094 L 117.214844 106.78125 L 118.699219 109.925781 L 118.757813 111.242188 L 118.359375 113.589844 L 118.074219 114.734375 L 118.019531 118.96875 L 118.191406 119.082031 L 118.304688 119.484375 L 119.390625 123.089844 L 120.019531 124.0625 L 120.359375 124.289063 L 120.359375 124.519531 L 121.101563 126.292969 L 121.445313 128.867188 L 121.730469 129.898438 L 122.644531 131.15625 L 123.269531 132.414063 L 124.355469 133.785156 L 124.410156 134.53125 L 124.015625 136.019531 L 123.386719 137.050781 L 123.785156 137.792969 L 124.242188 139.453125 L 123.445313 143.628906 L 123.503906 145.117188 L 123.960938 145.976563 L 123.960938 146.492188 "/>
<path style="fill:none;stroke-width:0.75;stroke-linecap:round;stroke-linejoin:round;stroke:rgb(0%,0%,100%);stroke-opacity:1;stroke-miterlimit:10;" d="M 45.546875 106.605469 L 46.121094 107.804688 L 47.488281 109.519531 L 47.492188 111.46875 L 47.777344 112.382813 L 49.03125 112.722656 L 51.144531 114.097656 L 51.769531 114.039063 L 53.195313 112.320313 L 53.078125 112.035156 L 53.25 111.976563 L 53.308594 111.519531 L 54.046875 110.085938 L 54.386719 108.65625 L 54.5 104.992188 L 54.726563 102.761719 L 54.71875 97.554688 L 54.890625 95.722656 L 55.285156 93.261719 L 55.855469 92.230469 L 56.996094 90.972656 L 60.246094 89.652344 L 60.757813 89.136719 L 61.382813 87.992188 L 62.125 87.132813 L 63.207031 86.558594 L 64.859375 86.042969 "/>
<path style="fill:none;stroke-width:0.75;stroke-linecap:round;stroke-linejoin:round;stroke:rgb(0%,0%,100%);stroke-opacity:1;stroke-miterlimit:10;" d="M 57.992188 122.273438 L 57.9375 124.503906 L 57.652344 125.535156 L 57.3125 127.652344 L 54.179688 131.71875 L 53.042969 133.949219 L 52.644531 135.097656 L 52.359375 136.753906 L 52.589844 137.328125 L 53.386719 138.355469 L 55.613281 140.300781 L 56.410156 140.644531 L 59.660156 140.183594 L 60.171875 140.640625 L 60.289063 141.441406 L 60.515625 141.496094 L 60.6875 142.355469 L 61.257813 143.101563 L 62.683594 143.84375 L 62.96875 144.355469 L 63.484375 146.417969 L 63.996094 146.816406 L 65.082031 147.160156 L 66.621094 147.273438 L 67.417969 148.128906 L 67.363281 149.789063 L 68.105469 150.820313 L 68.789063 151.332031 L 70.957031 151.617188 L 71.925781 151.042969 L 73.292969 149.84375 L 74.375 149.324219 L 78.476563 148.75 L 81.042969 150.523438 L 81.671875 150.40625 L 82.296875 149.261719 L 82.523438 148.003906 L 82.921875 147.375 L 83.71875 146.6875 L 85.144531 146.570313 L 86.570313 147.085938 L 89.304688 147.65625 L 90.21875 147.140625 L 91.355469 145.308594 L 91.640625 144.21875 L 92.324219 142.675781 L 93.691406 141.359375 L 94.832031 140.84375 L 99.789063 139.464844 L 100.757813 138.777344 "/>
</g>
</g>
</svg>
